HIERARCHY
ROOT hip
{
  OFFSET 0.0 0.0 0.0
  CHANNELS 6 Xposition Yposition Zposition Zrotation Yrotation Xrotation
  JOINT abdomen
  {
    OFFSET 0.0 20.6881 -0.73152
    CHANNELS 3 Zrotation Xrotation Yrotation
    JOINT chest
    {
      OFFSET 0.0 11.7043 -0.48768
      CHANNELS 3 Zrotation Xrotation Yrotation
      JOINT neck
      {
        OFFSET 0.0 22.1894 -2.19456
        CHANNELS 3 Zrotation Xrotation Yrotation
        JOINT head
        {
          OFFSET -0.24384 7.07133 1.2192
          CHANNELS 3 Zrotation Xrotation Yrotation
          JOINT leftEye
          {
            OFFSET 4.14528 8.04674 8.04672
            CHANNELS 3 Zrotation Xrotation Yrotation
            End Site
            {
              OFFSET 1.0 0.0 0.0
            }
          }
          JOINT rightEye
          {
            OFFSET -3.6576 8.04674 8.04672
            CHANNELS 3 Zrotation Xrotation Yrotation
            End Site
            {
              OFFSET 1.0 0.0 0.0
            }
          }
        }
      }
      JOINT rCollar
      {
        OFFSET -2.68224 19.2634 -4.8768
        CHANNELS 3 Zrotation Xrotation Yrotation
        JOINT rShldr
        {
          OFFSET -8.77824 -1.95073 1.46304
          CHANNELS 3 Zrotation Xrotation Yrotation
          JOINT rForeArm
          {
            OFFSET -28.1742 -1.7115 0.48768
            CHANNELS 3 Zrotation Xrotation Yrotation
            JOINT rHand
            {
              OFFSET -22.5879 0.773209 7.07136
              CHANNELS 3 Zrotation Xrotation Yrotation
              JOINT rThumb1
              {
                OFFSET -1.2192 -0.487915 3.41376
                CHANNELS 3 Zrotation Xrotation Yrotation
                JOINT rThumb2
                {
                  OFFSET -3.37035 -0.52449 3.41376
                  CHANNELS 3 Zrotation Xrotation Yrotation
                  End Site
                  {
                    OFFSET -1.78271 -1.18214 1.43049
                  }
                }
              }
              JOINT rIndex1
              {
                OFFSET -7.75947 0.938293 5.60832
                CHANNELS 3 Zrotation Xrotation Yrotation
                JOINT rIndex2
                {
                  OFFSET -2.54057 -0.884171 1.56538
                  CHANNELS 3 Zrotation Xrotation Yrotation
                  End Site
                  {
                    OFFSET -1.62519 -0.234802 1.16502
                  }
                }
              }
              JOINT rMid1
              {
                OFFSET -8.24714 1.18213 3.41376
                CHANNELS 3 Zrotation Xrotation Yrotation
                JOINT rMid2
                {
                  OFFSET -3.10165 -0.590103 1.0647
                  CHANNELS 3 Zrotation Xrotation Yrotation
                  End Site
                  {
                    OFFSET -2.48547 -0.328903 0.83742
                  }
                }
              }
              JOINT rRing1
              {
                OFFSET -8.82822 0.546677 1.51678
                CHANNELS 3 Zrotation Xrotation Yrotation
                JOINT rRing2
                {
                  OFFSET -2.60934 -0.819778 -0.0198488
                  CHANNELS 3 Zrotation Xrotation Yrotation
                  End Site
                  {
                    OFFSET -2.33842 -0.294052 0.168128
                  }
                }
              }
              JOINT rPinky1
              {
                OFFSET -8.27202 -0.0477905 -0.4584
                CHANNELS 3 Zrotation Xrotation Yrotation
                JOINT rPinky2
                {
                  OFFSET -1.82734 -0.647385 -0.700984
                  CHANNELS 3 Zrotation Xrotation Yrotation
                  End Site
                  {
                    OFFSET -1.69225 -0.51767 -0.607171
                  }
                }
              }
            }
          }
        }
      }
      JOINT lCollar
      {
        OFFSET 2.68224 19.2634 -4.8768
        CHANNELS 3 Zrotation Xrotation Yrotation
        JOINT lShldr
        {
          OFFSET 8.77824 -1.95073 1.46304
          CHANNELS 3 Zrotation Xrotation Yrotation
          JOINT lForeArm
          {
            OFFSET 28.1742 -1.7115 0.48768
            CHANNELS 3 Zrotation Xrotation Yrotation
            JOINT lHand
            {
              OFFSET 22.5879 0.773209 7.07136
              CHANNELS 3 Zrotation Xrotation Yrotation
              JOINT lThumb1
              {
                OFFSET 1.2192 -0.487915 3.41376
                CHANNELS 3 Zrotation Xrotation Yrotation
                JOINT lThumb2
                {
                  OFFSET 3.37035 -0.52449 3.41376
                  CHANNELS 3 Zrotation Xrotation Yrotation
                  End Site
                  {
                    OFFSET 1.78271 -1.18214 1.43049
                  }
                }
              }
              JOINT lIndex1
              {
                OFFSET 7.75947 0.938293 5.60832
                CHANNELS 3 Zrotation Xrotation Yrotation
                JOINT lIndex2
                {
                  OFFSET 2.54057 -0.884171 1.56538
                  CHANNELS 3 Zrotation Xrotation Yrotation
                  End Site
                  {
                    OFFSET 1.62519 -0.234802 1.16502
                  }
                }
              }
              JOINT lMid1
              {
                OFFSET 8.24714 1.18213 3.41376
                CHANNELS 3 Zrotation Xrotation Yrotation
                JOINT lMid2
                {
                  OFFSET 3.10165 -0.590103 1.0647
                  CHANNELS 3 Zrotation Xrotation Yrotation
                  End Site
                  {
                    OFFSET 2.48547 -0.328903 0.83742
                  }
                }
              }
              JOINT lRing1
              {
                OFFSET 8.82822 0.546677 1.51678
                CHANNELS 3 Zrotation Xrotation Yrotation
                JOINT lRing2
                {
                  OFFSET 2.60934 -0.819778 -0.0198488
                  CHANNELS 3 Zrotation Xrotation Yrotation
                  End Site
                  {
                    OFFSET 2.33842 -0.294052 0.168128
                  }
                }
              }
              JOINT lPinky1
              {
                OFFSET 8.27202 -0.0477905 -0.4584
                CHANNELS 3 Zrotation Xrotation Yrotation
                JOINT lPinky2
                {
                  OFFSET 1.82734 -0.647385 -0.700984
                  CHANNELS 3 Zrotation Xrotation Yrotation
                  End Site
                  {
                    OFFSET 1.69225 -0.51767 -0.607171
                  }
                }
              }
            }
          }
        }
      }
    }
  }
  JOINT rButtock
  {
    OFFSET -8.77824 4.35084 1.2192
    CHANNELS 3 Zrotation Xrotation Yrotation
    JOINT rThigh
    {
      OFFSET 0.0 -1.70687 -2.19456
      CHANNELS 3 Zrotation Xrotation Yrotation
      JOINT rShin
      {
        OFFSET 0.0 -36.8199 0.73152
        CHANNELS 3 Zrotation Xrotation Yrotation
        JOINT rFoot
        {
          OFFSET 0.73152 -45.1104 -5.12064
          CHANNELS 3 Zrotation Xrotation Yrotation
          End Site
          {
            OFFSET -1.1221 -3.69964 12.103
          }
        }
      }
    }
  }
  JOINT lButtock
  {
    OFFSET 8.77824 4.35084 1.2192
    CHANNELS 3 Zrotation Xrotation Yrotation
    JOINT lThigh
    {
      OFFSET 0.0 -1.70687 -2.19456
      CHANNELS 3 Zrotation Xrotation Yrotation
      JOINT lShin
      {
        OFFSET 0.0 -36.8199 0.73152
        CHANNELS 3 Zrotation Xrotation Yrotation
        JOINT lFoot
        {
          OFFSET -0.73152 -45.1104 -5.12064
          CHANNELS 3 Zrotation Xrotation Yrotation
          End Site
          {
            OFFSET 1.1221 -3.69964 12.103
          }
        }
      }
    }
  }
}
MOTION
Frames: 9
Frame Time: 0.00833333
4.0035 83.959 -18.1311 -5.9923 6.2742 1.1627 9.56632 4.26216 0.000411815 1.79548 -2.89272 0.14875 6.25071 -0.227496 2.4287 -11.2912 2.6466 3.34282 -0.0 0.0 0.0 -0.0 0.0 0.0 -7.41769e-14 -1.20512e-13 -3.64742e-13 57.4335 15.3428 -4.49455 -21.521 -15.0539 42.5143 -0.0136321 -3.33746 -0.469583 1.8393e-09 -5.76502e-09 -8.63346e-10 3.18368e-09 -9.98293e-09 -1.49656e-09 1.83931e-09 -5.76502e-09 -8.63363e-10 7.73091 5.47488 0.417314 1.8393e-09 -5.76502e-09 -8.63349e-10 2.90554 0.965183 0.102902 1.83931e-09 -5.76502e-09 -8.63353e-10 10.2786 0.731801 0.0259123 1.8393e-09 -5.76502e-09 -8.63351e-10 2.22167 -0.733487 -0.20892 -7.42704e-14 -1.20515e-13 -3.64972e-13 -57.2392 19.3503 -13.062 21.0211 -14.3526 -41.2212 0.0314462 -5.04889 0.711444 5.78088e-10 1.57202e-09 1.95164e-10 9.95174e-10 2.71518e-09 3.33969e-10 5.78082e-10 1.57201e-09 1.95177e-10 -7.73091 5.47488 -0.417314 5.78091e-10 1.57202e-09 1.95167e-10 -2.90554 0.965183 -0.102902 5.7808e-10 1.57202e-09 1.95162e-10 -10.2786 0.731801 -0.0259123 5.78095e-10 1.57202e-09 1.95157e-10 -2.22167 -0.733487 0.20892 -2.03217e-16 0.0 -3.88251e-19 9.33185 -2.37753 -3.52066 -0.0730799 22.822 0.471437 -3.07055 -9.44533 -11.2275 2.03217e-16 0.0 3.88251e-19 12.51 -32.3667 3.21655 0.422414 43.7452 -0.766927 3.46191 -3.78422 17.1904
4.04651 83.9759 -17.3916 -6.1458 6.2501 1.1232 9.73314 4.26262 1.17868 1.3894 -2.84745 0.47042 5.95245 -0.270932 2.16323 -10.8349 2.63471 2.89288 -0.0 0.0 0.0 -0.0 0.0 0.0 9.29945e-15 -1.31282e-13 -3.99125e-13 57.1135 16.0925 -3.6699 -21.5574 -15.1064 42.6095 -0.0126062 -3.20814 -0.451349 1.41412e-09 -5.03005e-09 -8.9221e-10 2.44832e-09 -8.71077e-09 -1.54747e-09 1.41414e-09 -5.03005e-09 -8.92228e-10 7.73091 5.47488 0.417314 1.41413e-09 -5.03004e-09 -8.92212e-10 2.90554 0.965183 0.102902 1.41414e-09 -5.03004e-09 -8.92219e-10 10.2786 0.731801 0.0259123 1.41412e-09 -5.03005e-09 -8.92218e-10 2.22167 -0.733487 -0.20892 9.23321e-15 -1.31288e-13 -3.99366e-13 -57.2935 17.7075 -12.2425 21.0975 -14.4577 -41.4169 0.0331776 -5.18467 0.730683 5.82542e-10 1.47928e-09 1.27265e-10 1.0045e-09 2.55935e-09 2.16423e-10 5.82537e-10 1.47928e-09 1.27273e-10 -7.73091 5.47488 -0.417314 5.82544e-10 1.47929e-09 1.27266e-10 -2.90554 0.965183 -0.102902 5.82535e-10 1.47929e-09 1.27261e-10 -10.2786 0.731801 -0.0259123 5.82551e-10 1.47929e-09 1.27252e-10 -2.22167 -0.733487 0.20892 -2.03217e-16 0.0 -3.88251e-19 9.50623 -1.4638 -3.41638 -0.0690664 22.0579 0.458923 -3.05243 -9.25992 -11.3139 2.03217e-16 0.0 3.88251e-19 12.2943 -32.8783 3.00493 0.390461 42.3131 -0.714678 3.45598 -3.6668 17.4572
4.09272 83.99 -16.6515 -6.2948 6.2344 1.0946 9.87037 4.24629 2.32827 0.998053 -2.79865 0.784066 5.67029 -0.301134 1.89983 -10.3912 2.62841 2.44475 -0.0 0.0 0.0 -0.0 0.0 0.0 7.32823e-14 -1.33579e-13 -3.9742e-13 56.8064 16.8014 -2.82895 -21.5879 -15.1505 42.6898 -0.012039 -3.1311 -0.44049 9.76999e-10 -3.99957e-09 -8.5735e-10 1.69212e-09 -6.92696e-09 -1.48766e-09 9.77013e-10 -3.99957e-09 -8.57369e-10 7.73091 5.47488 0.417314 9.77003e-10 -3.99956e-09 -8.57354e-10 2.90554 0.965183 0.102902 9.77014e-10 -3.99957e-09 -8.57361e-10 10.2786 0.731801 0.0259123 9.76994e-10 -3.99957e-09 -8.5736e-10 2.22167 -0.733487 -0.20892 7.32269e-14 -1.33587e-13 -3.97669e-13 -57.2959 16.148 -11.3979 21.1843 -14.5782 -41.6386 0.0354167 -5.36383 0.756069 5.71962e-10 1.35571e-09 7.01471e-11 9.87662e-10 2.34843e-09 1.17986e-10 5.71959e-10 1.35571e-09 7.01535e-11 -7.73091 5.47488 -0.417314 5.71965e-10 1.35572e-09 7.01471e-11 -2.90554 0.965183 -0.102902 5.71956e-10 1.35572e-09 7.01432e-11 -10.2786 0.731801 -0.0259123 5.71971e-10 1.35571e-09 7.01312e-11 -2.22167 -0.733487 0.20892 -2.03217e-16 0.0 -3.88251e-19 9.67118 -0.544467 -3.31175 -0.0650601 21.2728 0.444821 -3.03677 -9.05643 -11.429 2.03217e-16 0.0 3.88251e-19 12.0475 -33.3646 2.75972 0.359956 40.8548 -0.662192 3.43 -3.5451 17.6287
4.14508 83.9999 -15.9073 -6.4264 6.2343 1.0754 9.97634 4.21269 3.44889 0.619781 -2.74526 1.08951 5.40655 -0.313018 1.63676 -9.95767 2.62992 1.99521 -0.0 0.0 0.0 -0.0 0.0 0.0 1.10943e-13 -1.20473e-13 -3.39646e-13 56.5108 17.4712 -1.96847 -21.6126 -15.186 42.7551 -0.0122069 -3.14978 -0.443125 5.04822e-10 -2.4781e-09 -7.20677e-10 8.74996e-10 -4.29273e-09 -1.25112e-09 5.04834e-10 -2.4781e-09 -7.20697e-10 7.73091 5.47488 0.417314 5.04825e-10 -2.4781e-09 -7.20682e-10 2.90554 0.965183 0.102902 5.04836e-10 -2.4781e-09 -7.20688e-10 10.2786 0.731801 0.0259123 5.04817e-10 -2.4781e-09 -7.20687e-10 2.22167 -0.733487 -0.20892 1.1087e-13 -1.2048e-13 -3.399e-13 -57.2433 14.6827 -10.52 21.2847 -14.719 -41.8965 0.0384779 -5.59673 0.789096 5.65299e-10 1.20503e-09 2.70363e-11 9.77464e-10 2.0881e-09 4.46501e-11 5.65296e-10 1.20503e-09 2.70445e-11 -7.73091 5.47488 -0.417314 5.65301e-10 1.20503e-09 2.70365e-11 -2.90554 0.965183 -0.102902 5.65293e-10 1.20503e-09 2.70335e-11 -10.2786 0.731801 -0.0259123 5.65308e-10 1.20503e-09 2.7022e-11 -2.22167 -0.733487 0.20892 -2.03217e-16 0.0 -3.88251e-19 9.8274 0.379463 -3.20436 -0.0613279 20.4666 0.428825 -3.02538 -8.83627 -11.5814 2.03217e-16 0.0 3.88251e-19 11.7671 -33.8207 2.48457 0.330785 39.3552 -0.608459 3.3811 -3.41499 17.6971
4.20417 84.0084 -15.1605 -6.5402 6.2502 1.0668 10.0584 4.16578 4.54637 0.252328 -2.68526 1.38831 5.15578 -0.313398 1.37467 -9.53103 2.63454 1.54583 -0.0 0.0 0.0 -0.0 0.0 0.0 1.40057e-13 -9.626e-14 -2.41589e-13 56.2219 18.0954 -1.08536 -21.6306 -15.2121 42.8026 -0.0128861 -3.23412 -0.455016 -5.14566e-11 -4.91329e-10 -5.12003e-10 -8.77717e-11 -8.52709e-10 -8.89623e-10 -5.14495e-11 -4.9133e-10 -5.12025e-10 7.73091 5.47488 0.417314 -5.14561e-11 -4.91325e-10 -5.12012e-10 2.90554 0.965183 0.102902 -5.1446e-11 -4.91324e-10 -5.12014e-10 10.2786 0.731801 0.0259123 -5.14612e-11 -4.91324e-10 -5.12014e-10 2.22167 -0.733487 -0.20892 1.3995e-13 -9.62636e-14 -2.41846e-13 -57.1433 13.2911 -9.61921 21.3954 -14.8752 -42.1839 0.0425072 -5.87875 0.82914 5.41172e-10 9.66163e-10 -8.10743e-12 9.37134e-10 1.67377e-09 -1.42669e-11 5.4117e-10 9.66173e-10 -8.09511e-12 -7.73091 5.47488 -0.417314 5.41175e-10 9.66167e-10 -8.10624e-12 -2.90554 0.965183 -0.102902 5.41166e-10 9.66165e-10 -8.10798e-12 -10.2786 0.731801 -0.0259123 5.4118e-10 9.66162e-10 -8.11737e-12 -2.22167 -0.733487 0.20892 -2.03217e-16 0.0 -3.88251e-19 9.97673 1.30928 -3.08776 -0.0580885 19.6367 0.410989 -3.01648 -8.59577 -11.7683 2.03217e-16 0.0 3.88251e-19 11.4574 -34.2434 2.18223 0.303475 37.8097 -0.553787 3.30966 -3.27142 17.6708
4.27634 84.0152 -14.4086 -6.6152 6.2989 1.0677 10.1182 4.10441 5.61672 -0.0990498 -2.62255 1.67969 4.91755 -0.308577 1.11696 -9.11834 2.64083 1.10263 -0.0 0.0 0.0 -0.0 0.0 0.0 1.62659e-13 -7.33148e-14 -1.36367e-13 55.9512 18.6725 -0.189039 -21.6427 -15.2298 42.8346 -0.0134959 -3.30894 -0.465566 -6.03078e-10 1.54016e-09 -2.94674e-10 -1.04248e-09 2.66435e-09 -5.12898e-10 -6.03076e-10 1.54016e-09 -2.94697e-10 7.73091 5.47488 0.417314 -6.0308e-10 1.54016e-09 -2.94685e-10 2.90554 0.965183 0.102902 -6.03071e-10 1.54016e-09 -2.94684e-10 10.2786 0.731801 0.0259123 -6.03083e-10 1.54016e-09 -2.94684e-10 2.22167 -0.733487 -0.20892 1.62517e-13 -7.33147e-14 -1.36624e-13 -57.0031 11.966 -8.6917 21.5098 -15.0382 -42.4839 0.0472311 -6.19003 0.87339 4.72978e-10 6.76525e-10 -3.80111e-11 8.20426e-10 1.17113e-09 -6.4235e-11 4.72977e-10 6.76539e-10 -3.79945e-11 -7.73091 5.47488 -0.417314 4.72982e-10 6.76527e-10 -3.80088e-11 -2.90554 0.965183 -0.102902 4.72972e-10 6.76524e-10 -3.80094e-11 -10.2786 0.731801 -0.0259123 4.72984e-10 6.76522e-10 -3.80165e-11 -2.22167 -0.733487 0.20892 -2.03217e-16 0.0 -3.88251e-19 10.1157 2.24628 -2.97199 -0.0549373 18.7853 0.392085 -3.00547 -8.33479 -11.9727 2.03217e-16 0.0 3.88251e-19 11.1186 -34.645 1.84093 0.278447 36.2553 -0.500251 3.22425 -3.12687 17.5617
4.35222 84.0198 -13.6504 -6.6858 6.3608 1.0738 10.1574 4.02747 6.65596 -0.429007 -2.56103 1.96289 4.69131 -0.304864 0.867012 -8.72675 2.64736 0.671634 -0.0 0.0 0.0 -0.0 0.0 0.0 1.8078e-13 -6.40106e-14 -5.71009e-14 55.711 19.2012 0.710831 -21.6498 -15.2402 42.8534 -0.013367 -3.29904 -0.464168 -1.06128e-09 3.19578e-09 -1.32031e-10 -1.83541e-09 5.52966e-09 -2.30649e-10 -1.06129e-09 3.19577e-09 -1.32053e-10 7.73091 5.47488 0.417314 -1.06129e-09 3.19577e-09 -1.32044e-10 2.90554 0.965183 0.102902 -1.06128e-09 3.19578e-09 -1.32041e-10 10.2786 0.731801 0.0259123 -1.06129e-09 3.19578e-09 -1.32041e-10 2.22167 -0.733487 -0.20892 1.80622e-13 -6.40079e-14 -5.73494e-14 -56.8297 10.7 -7.73414 21.6219 -15.1996 -42.7796 0.0522734 -6.51073 0.919022 3.34114e-10 3.73523e-10 -6.54017e-11 5.8109e-10 6.45888e-10 -1.10724e-10 3.34114e-10 3.73539e-10 -6.53827e-11 -7.73091 5.47488 -0.417314 3.34119e-10 3.73524e-10 -6.53986e-11 -2.90554 0.965183 -0.102902 3.34109e-10 3.7352e-10 -6.53986e-11 -10.2786 0.731801 -0.0259123 3.3412e-10 3.73519e-10 -6.54049e-11 -2.22167 -0.733487 0.20892 -2.03217e-16 0.0 -3.88251e-19 10.2415 3.19174 -2.86709 -0.0514223 17.9149 0.372864 -2.98801 -8.05318 -12.178 2.03217e-16 0.0 3.88251e-19 10.7502 -35.0377 1.44854 0.255684 34.7291 -0.449617 3.1333 -2.99384 17.3814
4.44008 84.0249 -12.8854 -6.725 6.4515 1.092 10.1671 3.93138 7.65814 -0.736262 -2.50123 2.23616 4.48175 -0.304198 0.627439 -8.35928 2.65819 0.256856 -0.0 0.0 0.0 -0.0 0.0 0.0 1.98578e-13 -7.85722e-14 -1.49787e-14 55.5084 19.6703 1.61721 -21.6483 -15.238 42.8495 -0.0121185 -3.15631 -0.444038 -1.4481e-09 4.52546e-09 -4.18721e-11 -2.50458e-09 7.82901e-09 -7.35058e-11 -1.4481e-09 4.52546e-09 -4.18913e-11 7.73091 5.47488 0.417314 -1.4481e-09 4.52547e-09 -4.18844e-11 2.90554 0.965183 0.102902 -1.4481e-09 4.52547e-09 -4.18802e-11 10.2786 0.731801 0.0259123 -1.4481e-09 4.52547e-09 -4.18799e-11 2.22167 -0.733487 -0.20892 1.98432e-13 -7.85683e-14 -1.52082e-14 -56.6182 9.50772 -6.73607 21.7346 -15.364 -43.0773 0.0578746 -6.85726 0.968378 6.22002e-11 1.02727e-11 -9.85072e-11 1.1118e-10 1.71501e-11 -1.68423e-10 6.22007e-11 1.02883e-11 -9.84883e-11 -7.73091 5.47488 -0.417314 6.22074e-11 1.0275e-11 -9.85037e-11 -2.90554 0.965183 -0.102902 6.21956e-11 1.02709e-11 -9.8504e-11 -10.2786 0.731801 -0.0259123 6.22051e-11 1.02702e-11 -9.85121e-11 -2.22167 -0.733487 0.20892 -2.03217e-16 0.0 -3.88251e-19 10.3502 4.15032 -2.77261 -0.0474296 17.0139 0.352788 -2.96556 -7.7471 -12.3959 2.03217e-16 0.0 3.88251e-19 10.3297 -35.4172 0.969702 0.234067 33.2048 -0.400222 3.02877 -2.84763 17.127
4.53385 84.0269 -12.1132 -6.7526 6.5521 1.1175 10.1509 3.81833 8.62694 -1.02357 -2.44124 2.50044 4.28756 -0.303129 0.395862 -8.01164 2.67262 -0.145727 -0.0 0.0 0.0 -0.0 0.0 0.0 2.13763e-13 -1.08092e-13 8.44835e-15 55.3396 20.0834 2.53238 -21.6391 -15.2246 42.8251 -0.0103621 -2.9302 -0.412166 -1.79563e-09 5.6995e-09 9.88814e-12 -3.10565e-09 9.85769e-09 1.7501e-11 -1.79564e-09 5.69951e-09 9.87383e-12 7.73091 5.47488 0.417314 -1.79564e-09 5.69951e-09 9.87761e-12 2.90554 0.965183 0.102902 -1.79563e-09 5.69951e-09 9.88218e-12 10.2786 0.731801 0.0259123 -1.79564e-09 5.69951e-09 9.88298e-12 2.22167 -0.733487 -0.20892 2.13645e-13 -1.08087e-13 8.24646e-15 -56.3697 8.38884 -5.69837 21.8494 -15.5333 -43.3826 0.0643544 -7.23295 1.02198 -3.10147e-10 -4.14224e-10 -1.33373e-10 -5.32767e-10 -7.17318e-10 -2.30004e-10 -3.10146e-10 -4.1421e-10 -1.33356e-10 -7.73091 5.47488 -0.417314 -3.10137e-10 -4.14219e-10 -1.33369e-10 -2.90554 0.965183 -0.102902 -3.1015e-10 -4.14223e-10 -1.3337e-10 -10.2786 0.731801 -0.0259123 -3.10142e-10 -4.14224e-10 -1.33382e-10 -2.22167 -0.733487 0.20892 -2.03217e-16 0.0 -3.88251e-19 10.4449 5.11987 -2.68415 -0.0433273 16.0853 0.331732 -2.93876 -7.41805 -12.63 2.03217e-16 0.0 3.88251e-19 9.86268 -35.7781 0.420316 0.213787 31.6745 -0.351532 2.91081 -2.69045 16.7942
